<?xml version="1.0" standalone="no"?>
<!DOCTYPE svg PUBLIC "-//W3C//DTD SVG 20010904//EN"
 "http://www.w3.org/TR/2001/REC-SVG-20010904/DTD/svg10.dtd">
<svg version="1.0" xmlns="http://www.w3.org/2000/svg"
 width="600.000000pt" height="327.000000pt" viewBox="0 0 600.000000 327.000000"
 preserveAspectRatio="xMidYMid meet">
<g transform="translate(0.000000,327.000000) scale(0.100000,-0.100000)"
fill="#000000" stroke="none">
<path d="M3046 2472 c-10 -20 -46 -82 -81 -137 -35 -55 -65 -106 -67 -114 -2
-11 8 -14 43 -12 l47 2 -44 -128 c-50 -148 -46 -133 -36 -133 5 0 16 17 26 38
10 20 33 60 52 89 19 28 34 54 34 57 0 3 20 37 45 75 25 38 45 72 45 74 0 3
-20 2 -45 -1 -25 -2 -45 -2 -45 0 0 13 42 176 50 195 16 39 -6 34 -24 -5z
m-42 -149 c-17 -6 -4 -52 16 -58 20 -6 33 -32 24 -47 -3 -5 -13 -7 -23 -4 -14
5 -15 4 0 -6 15 -10 14 -13 -3 -30 -24 -24 -31 -23 -23 2 6 20 -11 54 -24 46
-3 -2 -12 2 -19 10 -7 8 -8 14 -2 14 5 0 10 8 10 18 0 15 2 15 11 2 8 -12 9
-10 4 8 -7 24 22 69 34 56 3 -4 1 -9 -5 -11z m66 -67 c0 -3 -4 -8 -10 -11 -5
-3 -10 -1 -10 4 0 6 5 11 10 11 6 0 10 -2 10 -4z"/>
<path d="M2929 2456 c-134 -48 -198 -204 -133 -323 25 -44 79 -102 97 -103 10
0 9 47 -1 52 -4 2 -23 23 -42 47 -32 39 -35 49 -35 105 1 92 51 163 130 182
28 7 54 29 55 47 0 11 -30 8 -71 -7z"/>
<path d="M3096 2443 c-13 -14 -5 -35 24 -60 38 -31 70 -100 70 -149 0 -40 -33
-114 -62 -141 -10 -9 -42 -24 -70 -34 -39 -13 -54 -23 -56 -38 -4 -25 0 -25
64 -6 183 56 221 303 63 416 -14 10 -29 16 -33 12z"/>
<path d="M2127 1783 c-4 -3 -7 -41 -7 -84 l0 -78 -82 -3 -83 -3 -3 -357 -2
-357 -68 -3 c-52 -2 -67 -6 -67 -18 0 -13 138 -15 1173 -18 1114 -2 1173 -1
1170 15 -3 17 -27 18 -311 21 l-307 2 -2 358 -3 357 -87 3 -88 3 0 69 c0 37
-3 75 -6 84 -6 14 -69 16 -613 16 -334 0 -611 -3 -614 -7z m568 -126 c0 -79 2
-92 18 -95 15 -3 17 6 17 92 l0 96 295 0 295 0 0 -65 0 -65 -95 0 -95 0 0
-361 1 -361 -108 0 c-88 0 -109 3 -111 15 -2 11 6 17 25 19 24 2 29 8 31 36 2
18 8 30 13 27 5 -4 18 -3 29 0 18 6 20 15 20 119 0 118 -10 146 -44 133 -11
-4 -16 3 -18 26 -3 31 -5 32 -50 35 -27 2 -48 5 -48 7 0 16 14 33 25 29 17 -7
30 15 17 28 -8 8 -15 8 -24 0 -8 -6 -19 -7 -26 -3 -10 6 -9 11 4 22 12 9 15
10 10 2 -4 -7 -2 -13 4 -13 6 0 13 6 16 14 3 8 12 12 19 10 19 -8 31 17 13 30
-8 6 -14 25 -14 41 1 36 -27 43 -32 8 -2 -13 -12 -23 -24 -25 -25 -4 -37 -28
-14 -28 9 0 16 -7 16 -15 0 -8 -9 -15 -20 -15 -22 0 -29 -35 -9 -42 7 -2 9
-13 5 -26 -6 -19 -15 -22 -57 -22 -46 0 -49 2 -49 25 0 18 5 25 20 25 12 0 20
7 20 16 0 9 -9 18 -20 21 -11 3 -20 12 -20 19 0 8 9 14 20 14 11 0 20 7 20 15
0 8 -9 15 -19 15 -14 0 -21 8 -23 28 -2 16 -9 27 -18 27 -9 0 -16 -11 -18 -27
-2 -16 -9 -28 -18 -28 -21 0 -17 -27 6 -33 11 -3 20 -10 20 -15 0 -5 -9 -12
-20 -15 -25 -6 -26 -27 -1 -34 12 -3 19 -14 19 -29 0 -22 -4 -24 -49 -24 -39
0 -49 4 -54 20 -4 12 0 26 9 36 19 19 12 34 -15 34 -10 0 -19 7 -19 15 0 8 5
15 10 15 6 0 10 7 10 15 0 8 -8 15 -18 15 -11 0 -24 12 -31 27 -9 18 -15 23
-23 15 -14 -14 -1 -63 17 -60 7 2 14 0 14 -4 3 -27 -1 -29 -19 -13 -11 10 -26
15 -35 11 -23 -8 -12 -32 13 -29 11 1 23 -4 26 -12 3 -9 -1 -15 -10 -15 -9 0
-14 -7 -12 -17 2 -10 6 -16 9 -13 7 6 39 -19 39 -31 0 -5 -22 -9 -50 -9 l-50
0 0 -36 c0 -28 -4 -35 -17 -33 -43 4 -43 3 -43 -120 0 -111 1 -120 20 -126 11
-3 24 -3 30 0 6 4 10 -8 10 -29 0 -33 2 -36 31 -36 24 0 30 -4 27 -17 -3 -16
-15 -18 -93 -17 l-90 1 0 359 0 359 -87 3 -88 3 0 67 0 67 268 -3 267 -3 0
-92z m-397 -408 c1 -184 1 -338 -2 -344 -2 -6 -61 -9 -160 -7 l-156 3 0 338
c0 186 2 340 4 342 2 2 73 4 158 3 l153 -1 3 -334z m1202 -9 l0 -345 -165 0
-165 0 0 345 0 345 165 0 165 0 0 -345z m-780 204 c0 -8 -5 -12 -10 -9 -6 4
-8 11 -5 16 9 14 15 11 15 -7z m180 -13 c0 -6 -4 -13 -10 -16 -5 -3 -10 1 -10
9 0 9 5 16 10 16 6 0 10 -4 10 -9z m-330 -54 c0 -7 -10 -13 -22 -14 -20 -2
-21 -1 -5 8 9 6 14 15 11 21 -4 7 -2 8 4 4 7 -4 12 -13 12 -19z m151 0 c-13
-13 -26 -3 -16 12 3 6 11 8 17 5 6 -4 6 -10 -1 -17z m209 -252 l0 -155 -62 0
c-35 0 -132 -2 -216 -3 l-152 -2 0 158 0 157 215 0 215 0 0 -155z m-470 -5 c0
-53 -4 -90 -10 -90 -6 0 -10 37 -10 90 0 53 4 90 10 90 6 0 10 -37 10 -90z
m532 0 c-2 -49 -8 -90 -13 -90 -5 0 -9 41 -9 90 0 65 3 90 13 90 9 0 11 -23 9
-90z m-114 -207 c-3 -15 -16 -17 -108 -15 -58 1 -131 2 -162 2 -45 0 -58 3
-58 15 0 13 25 15 166 15 150 0 165 -2 162 -17z"/>
<path d="M2050 1361 c-5 -11 -10 -27 -10 -36 0 -17 37 -35 57 -28 19 8 25 40
11 62 -16 26 -44 27 -58 2z m35 -11 c3 -5 1 -10 -4 -10 -6 0 -11 5 -11 10 0 6
2 10 4 10 3 0 8 -4 11 -10z"/>
<path d="M2182 1360 c-29 -28 -14 -63 25 -58 38 4 52 32 29 57 -24 26 -27 26
-54 1z m32 -25 c3 -9 0 -15 -9 -15 -9 0 -12 6 -9 15 4 8 7 15 9 15 2 0 5 -7 9
-15z"/>
<path d="M3244 1495 c-4 -9 8 -27 30 -47 l36 -34 -35 -34 c-19 -19 -35 -40
-35 -47 0 -24 29 -13 63 23 l33 36 32 -36 c31 -36 62 -47 62 -23 0 7 -16 28
-35 47 l-35 34 35 36 c19 20 35 41 35 48 0 22 -26 12 -60 -23 l-34 -35 -36 35
c-40 39 -48 42 -56 20z"/>
<path d="M3366 1278 c3 -5 10 -6 15 -3 13 9 11 12 -6 12 -8 0 -12 -4 -9 -9z"/>
<path d="M2636 1243 c-3 -4 -6 -60 -6 -125 0 -111 1 -118 20 -118 19 0 20 7
20 119 0 93 -3 120 -14 124 -8 3 -17 3 -20 0z"/>
<path d="M2705 1242 c-6 -4 -10 -60 -10 -125 0 -105 2 -117 18 -117 15 0 17
12 17 119 0 115 -5 138 -25 123z"/>
<path d="M2562 1123 c3 -103 5 -118 21 -121 15 -3 17 8 17 117 0 115 -1 121
-20 121 -20 0 -21 -5 -18 -117z"/>
<path d="M2763 1120 c-2 -113 -1 -120 18 -120 18 0 19 8 19 120 0 108 -2 120
-17 120 -16 0 -18 -13 -20 -120z"/>
<path d="M2830 1119 c0 -109 2 -120 18 -117 15 3 17 18 19 121 1 109 0 117
-18 117 -18 0 -19 -8 -19 -121z"/>
</g>
</svg>
