<?xml version="1.0" standalone="no"?>
<!DOCTYPE svg PUBLIC "-//W3C//DTD SVG 20010904//EN"
 "http://www.w3.org/TR/2001/REC-SVG-20010904/DTD/svg10.dtd">
<svg version="1.0" xmlns="http://www.w3.org/2000/svg"
 width="600.000000pt" height="327.000000pt" viewBox="0 0 600.000000 327.000000"
 preserveAspectRatio="xMidYMid meet">
<g transform="translate(0.000000,327.000000) scale(0.100000,-0.100000)"
fill="#000000" stroke="none">
<path d="M1905 2481 c-13 -13 -37 -82 -80 -227 -2 -6 -68 -51 -147 -99 -78
-48 -149 -95 -155 -103 -7 -9 -13 -43 -13 -77 0 -88 12 -97 129 -94 50 1 94 0
97 -3 2 -3 -37 -31 -88 -63 -165 -104 -158 -96 -158 -179 0 -43 5 -77 12 -84
8 -8 50 -12 125 -12 133 0 126 10 89 -139 -13 -53 -36 -148 -51 -211 -62 -274
-67 -290 -87 -290 -11 0 -18 -7 -18 -20 0 -20 7 -20 1440 -20 l1440 0 0 21 c0
20 -4 21 -45 17 l-45 -6 0 199 c0 197 0 198 23 201 19 3 22 10 25 61 l3 57
-391 0 -392 0 -46 41 -47 41 -177 -1 -178 -2 0 151 0 150 -379 0 -379 0 -72
41 c-39 23 -69 44 -66 46 3 3 50 5 105 4 119 -2 124 2 119 106 l-3 66 -115 74
c-63 40 -131 82 -150 92 -31 17 -39 29 -58 88 -11 37 -26 86 -31 108 -6 23
-20 51 -31 63 -19 20 -30 22 -105 20 -61 -1 -89 -6 -100 -17z m198 -86 c10
-33 22 -68 27 -77 5 -9 13 -36 16 -58 5 -29 13 -45 28 -51 12 -5 59 -34 106
-64 47 -30 99 -62 115 -71 57 -31 65 -44 65 -100 l0 -53 -107 -3 -108 -3 -3
-32 c-3 -32 2 -37 130 -116 24 -15 69 -17 395 -17 l368 0 0 -147 0 -148 189
-2 189 -2 36 -29 c32 -26 36 -34 36 -78 0 -43 3 -49 23 -52 22 -3 22 -4 22
-198 l0 -194 -75 0 c-41 0 -75 4 -75 9 0 5 10 11 23 13 17 2 22 9 20 31 -1 22
2 27 22 27 20 0 25 6 30 42 3 24 4 68 2 98 -3 51 -6 55 -30 58 -23 3 -26 7
-21 27 7 28 -10 40 -53 36 -25 -2 -33 2 -33 13 0 9 8 16 20 16 11 0 20 7 20
15 0 8 -4 15 -10 15 -5 0 -10 5 -10 10 0 6 9 10 20 10 11 0 20 7 20 15 0 8 -6
15 -14 15 -9 0 -12 8 -8 25 5 31 -23 35 -31 5 -3 -13 -10 -18 -21 -14 -11 4
-16 1 -16 -10 0 -9 5 -16 10 -16 6 0 10 -7 10 -15 0 -8 -6 -12 -14 -9 -18 7
-32 -16 -16 -26 6 -4 10 -16 8 -26 -2 -15 -12 -19 -43 -19 -33 0 -40 3 -40 20
1 11 6 19 13 17 7 -1 12 7 12 18 0 11 -7 20 -15 20 -8 0 -15 5 -15 10 0 6 7
10 15 10 8 0 15 7 15 15 0 8 -4 15 -10 15 -5 0 -10 9 -10 20 0 13 -7 20 -20
20 -13 0 -20 -7 -20 -20 0 -11 -7 -20 -15 -20 -8 0 -15 -7 -15 -15 0 -8 7 -15
15 -15 8 0 15 -7 15 -15 0 -8 -5 -14 -11 -13 -6 2 -14 -3 -16 -9 -3 -7 2 -13
11 -13 10 0 16 -9 16 -25 0 -22 -4 -25 -39 -25 -30 0 -40 4 -44 20 -3 10 1 24
9 31 16 14 8 33 -12 25 -21 -8 -27 11 -7 23 14 8 15 12 6 22 -10 10 -15 9 -27
-1 -9 -7 -13 -17 -9 -23 4 -6 1 -7 -6 -2 -9 5 -10 10 -2 18 16 16 14 44 -4 50
-19 8 -28 -8 -20 -33 4 -11 2 -20 -4 -20 -6 0 -11 -7 -11 -15 0 -9 9 -15 23
-15 20 -1 21 -2 5 -14 -24 -18 -23 -25 7 -36 39 -15 29 -30 -20 -30 -43 0 -45
-1 -45 -30 0 -25 -4 -30 -25 -30 l-25 0 0 -100 c0 -99 0 -100 24 -100 19 0 25
-6 28 -27 2 -20 9 -29 26 -31 20 -3 29 -25 9 -23 -4 1 -47 1 -97 1 l-90 0 0
85 0 85 -47 1 c-27 1 -76 1 -109 0 l-61 -3 1 71 c1 69 2 71 26 68 16 -1 25 4
28 16 3 15 -5 17 -73 17 -67 0 -76 -2 -73 -17 2 -13 11 -17 31 -15 27 3 27 3
27 -58 0 -38 4 -59 10 -55 6 3 10 0 10 -8 0 -12 -20 -15 -110 -14 -67 0 -115
-4 -121 -10 -7 -7 -10 -41 -7 -87 l3 -76 -67 0 c-38 0 -71 -1 -75 -2 -7 -3
-17 25 -38 112 -7 30 -29 118 -49 195 -20 77 -45 196 -57 264 -22 134 -33 171
-48 171 -6 0 -8 -7 -5 -15 9 -22 -4 -18 -16 6 -9 15 -8 24 1 35 9 11 9 14 0
14 -7 0 -9 5 -5 11 9 16 24 -10 16 -30 -3 -9 -2 -13 2 -9 4 3 16 -2 27 -13 17
-17 34 -19 149 -19 117 0 130 2 130 18 -1 10 -29 34 -73 62 -228 140 -224 137
-230 188 -3 26 -9 55 -13 65 -6 17 3 18 136 16 144 -1 175 6 144 32 -20 16
-139 91 -232 145 -39 23 -68 47 -74 63 -6 14 -14 35 -19 46 -4 11 -11 36 -15
55 -13 72 -31 100 -61 100 -27 0 -29 -5 -57 -98 -16 -53 -33 -104 -37 -113 -4
-8 -45 -38 -90 -65 -45 -27 -98 -59 -118 -71 -20 -13 -53 -32 -73 -43 -21 -11
-38 -27 -38 -35 0 -12 26 -15 148 -17 l147 -3 -8 -62 -9 -62 -66 -41 c-97 -59
-99 -61 -166 -106 -93 -62 -86 -69 72 -69 l133 0 -7 -65 c-15 -145 -30 -209
-139 -620 -9 -34 -18 -46 -34 -48 -11 -2 -21 2 -21 8 0 15 41 196 119 522 26
107 26 113 1 138 -17 17 -33 20 -123 20 -57 0 -106 2 -108 4 -2 2 -3 28 -1 58
l4 53 118 75 c117 74 119 76 120 113 l0 37 -110 0 -110 0 0 53 c0 40 5 57 20
70 11 9 24 17 28 17 4 0 40 22 79 48 40 26 97 62 128 81 30 18 55 39 55 45 0
9 43 149 64 212 3 7 34 11 83 10 l78 -1 18 -60z m-62 -133 c10 -30 19 -55 19
-57 0 -2 -25 -5 -55 -7 -30 -1 -55 0 -55 3 0 3 7 25 15 50 7 24 19 64 26 89
l12 45 9 -35 c6 -19 18 -59 29 -88z m54 -92 c16 -17 16 -20 3 -15 -9 4 -19 13
-22 21 -7 19 -2 18 19 -6z m-21 -75 c4 -36 9 -72 12 -80 5 -13 -7 -15 -80 -15
-84 0 -86 1 -82 23 3 12 8 48 11 80 l6 57 63 0 63 0 7 -65z m-168 29 c-3 -9
-9 -40 -12 -70 l-7 -54 -103 0 c-56 0 -111 -3 -121 -6 -10 -3 2 6 27 21 25 14
81 48 125 75 87 53 100 58 91 34z m266 -21 c72 -46 101 -63 140 -81 21 -9 38
-19 38 -22 0 -3 -51 -4 -113 -2 l-113 3 -10 70 c-11 78 -12 77 58 32z m-248
-144 c-3 -5 -9 -9 -13 -9 -11 0 -21 37 -13 45 9 8 33 -26 26 -36z m186 21 c-6
-4 -11 -10 -10 -14 1 -4 -1 -12 -3 -19 -3 -6 -6 0 -6 14 -1 29 7 41 21 32 6
-3 5 -8 -2 -13z m-40 -16 c0 -3 -10 -19 -22 -34 -13 -15 -28 -35 -34 -45 -9
-16 -14 -12 -42 33 l-32 52 65 0 c36 0 65 -3 65 -6z m-117 -80 l27 -45 -45
-70 c-24 -38 -47 -69 -49 -69 -3 0 -1 12 4 28 12 35 19 95 20 155 0 26 3 47 8
47 4 0 20 -21 35 -46z m147 4 c0 -24 5 -72 10 -108 5 -35 8 -66 6 -68 -2 -1
-23 27 -46 64 l-42 67 19 26 c11 14 22 34 26 44 12 32 27 18 27 -25z m-240
-156 c-5 -35 -10 -65 -11 -67 -7 -5 -199 -11 -199 -5 1 5 214 140 216 137 1
-1 -2 -30 -6 -65z m194 3 c25 -36 46 -69 46 -73 0 -5 -163 -7 -198 -2 -2 0 12
20 30 45 18 24 41 56 51 70 10 14 20 25 22 25 2 0 24 -29 49 -65z m171 10 c39
-25 85 -52 103 -62 32 -17 46 -40 16 -29 -9 3 -53 6 -100 6 -79 0 -84 1 -88
23 -10 46 -14 107 -8 107 4 0 39 -21 77 -45z m-338 -72 c-4 -3 -2 -12 5 -20 8
-10 8 -17 0 -25 -13 -13 -46 -2 -36 13 4 8 9 7 16 -2 7 -11 9 -9 7 6 -2 27 0
35 8 35 3 0 3 -3 0 -7z m133 -44 c0 -8 13 -9 40 -5 25 4 40 2 40 -4 0 -5 -4
-10 -8 -10 -4 0 -23 -16 -42 -35 -19 -19 -39 -35 -45 -35 -10 0 -85 70 -85 81
0 4 18 5 40 2 26 -4 40 -2 40 6 0 6 5 11 10 11 6 0 10 -5 10 -11z m-43 -123
c-1 -1 -33 -30 -71 -66 -38 -36 -66 -57 -62 -47 6 18 23 121 30 182 2 17 4 30
5 31 0 1 24 -21 51 -49 28 -28 49 -51 47 -51z m164 67 c0 -44 10 -115 19 -152
5 -19 8 -36 7 -37 -1 -2 -33 27 -70 63 l-67 65 48 44 c26 24 50 44 54 44 5 0
8 -12 9 -27z m16 -227 c15 -8 15 -10 -3 -23 -10 -7 -41 -35 -69 -61 -86 -81
-78 -79 -127 -32 -24 23 -53 49 -66 57 -50 34 -47 45 35 126 l77 76 68 -67
c37 -36 76 -70 85 -76z m2203 5 l0 -28 -370 -1 -370 -1 0 30 0 29 370 0 370
-1 0 -28z m-1176 -57 c3 -8 2 -12 -4 -9 -6 3 -10 10 -10 16 0 14 7 11 14 -7z
m-1275 -65 l71 -67 -48 -42 c-26 -24 -80 -74 -119 -113 -40 -39 -75 -68 -78
-66 -2 3 6 38 18 79 13 41 34 121 48 177 13 57 27 102 30 100 3 -1 38 -32 78
-68z m291 9 c7 -35 18 -81 25 -103 7 -22 18 -67 26 -100 7 -33 17 -66 22 -73
5 -7 7 -15 3 -19 -3 -3 -39 25 -79 64 -39 38 -91 87 -114 108 -24 21 -43 41
-43 45 0 9 132 140 141 140 4 0 12 -28 19 -62z m2124 50 c-4 -7 -8 -95 -9
-197 -1 -103 -5 -187 -8 -188 -4 -2 -52 -3 -107 -3 l-100 0 0 134 c0 98 -3
135 -12 138 -20 6 -185 1 -197 -7 -7 -4 -11 -55 -11 -138 l0 -132 -107 3 -108
3 -2 194 -1 195 331 3 c183 1 333 3 335 5 2 1 0 -3 -4 -10z m-1617 -80 c-3 -8
-6 -5 -6 6 -1 11 2 17 5 13 3 -3 4 -12 1 -19z m783 -123 l0 -125 -181 2 -180
3 0 118 c0 64 0 119 1 122 0 3 81 5 180 5 l180 0 0 -125z m-400 0 c0 -37 -4
-65 -10 -65 -6 0 -10 28 -10 65 0 37 4 65 10 65 6 0 10 -28 10 -65z m450 -6
c0 -44 -4 -68 -10 -64 -5 3 -10 35 -10 71 0 36 4 64 10 64 6 0 10 -30 10 -71z
m-1282 -189 c2 -12 1 -12 -6 -2 -7 10 -62 12 -255 10 -136 -2 -247 -2 -247 0
0 2 28 29 62 60 34 31 91 85 127 118 l65 62 125 -117 c70 -64 127 -123 129
-131z m1802 130 l0 -120 -70 0 -70 0 0 120 0 120 70 0 70 0 0 -120z m-1160
-52 l0 -73 -195 3 -195 3 0 69 0 70 195 0 195 0 0 -72z m-1163 -68 c2 -13 -2
-18 -11 -14 -8 3 -13 16 -12 29 1 27 18 17 23 -15z m558 10 c0 -7 -6 -15 -12
-17 -8 -3 -13 4 -13 17 0 13 5 20 13 18 6 -3 12 -11 12 -18z m1155 0 c0 -6
-53 -10 -140 -10 -87 0 -140 4 -140 10 0 6 53 10 140 10 87 0 140 -4 140 -10z"/>
<path d="M2697 1603 c-4 -3 -7 -21 -7 -39 0 -28 -4 -33 -27 -36 -17 -2 -28 -9
-28 -18 0 -12 14 -15 70 -15 56 0 70 3 70 15 0 19 -41 25 -61 10 -9 -8 -14 -9
-14 -2 0 6 5 12 10 14 17 5 21 54 7 67 -8 6 -17 8 -20 4z"/>
<path d="M2973 1592 c-6 -4 -13 -18 -14 -32 -3 -21 -9 -25 -39 -25 -24 0 -35
-5 -35 -15 0 -17 133 -56 146 -43 15 15 -8 34 -44 36 -31 2 -43 12 -14 12 16
0 33 53 21 65 -5 5 -14 6 -21 2z"/>
<path d="M2413 1574 c-3 -8 -1 -20 6 -27 13 -13 15 -41 2 -33 -4 3 -17 -1 -27
-9 -14 -10 -16 -17 -8 -25 16 -16 139 20 139 41 0 10 -10 13 -32 12 -28 -3
-32 1 -38 27 -7 32 -32 40 -42 14z m47 -64 c0 -5 -4 -10 -10 -10 -5 0 -10 5
-10 10 0 6 5 10 10 10 6 0 10 -4 10 -10z"/>
<path d="M2490 1461 c-8 -5 -32 -11 -52 -15 -29 -5 -38 -12 -38 -26 0 -25 12
-25 80 -1 31 11 56 26 58 35 4 17 -23 21 -48 7z"/>
<path d="M2874 1456 c-8 -21 -11 -18 57 -39 70 -21 79 -21 79 1 0 13 -13 22
-47 31 -27 7 -56 15 -65 18 -11 3 -20 -1 -24 -11z"/>
<path d="M2632 1443 c3 -15 14 -18 73 -18 54 0 70 3 70 14 0 11 -18 16 -73 18
-66 3 -73 2 -70 -14z"/>
<path d="M2476 1384 c-56 -15 -60 -18 -53 -38 5 -12 14 -12 69 2 62 16 81 28
72 44 -7 10 -28 9 -88 -8z"/>
<path d="M2850 1385 c0 -9 6 -17 13 -19 6 -2 36 -12 66 -21 43 -13 56 -14 62
-4 12 20 3 26 -55 43 -68 20 -86 20 -86 1z"/>
<path d="M2637 1383 c-4 -3 -7 -12 -7 -20 0 -10 19 -13 75 -13 68 0 75 2 75
20 0 18 -7 20 -68 20 -38 0 -72 -3 -75 -7z"/>
<path d="M2830 1325 c-16 -20 14 -34 121 -57 17 -4 24 31 7 36 -7 2 -36 10
-65 19 -42 12 -54 12 -63 2z"/>
<path d="M2488 1313 c-44 -13 -61 -34 -40 -47 16 -10 127 31 130 48 4 20 -24
20 -90 -1z"/>
<path d="M2630 1301 c0 -19 5 -21 75 -21 60 0 75 3 75 15 0 12 -13 15 -59 15
-33 0 -66 3 -75 6 -12 4 -16 0 -16 -15z"/>
<path d="M2523 1248 c-42 -12 -63 -24 -63 -34 0 -11 8 -15 32 -12 30 3 32 1
43 -43 15 -57 22 -69 41 -69 18 0 18 4 -1 68 -10 34 -21 52 -31 52 -19 0 -13
22 7 28 11 3 11 2 -1 -7 -12 -9 -11 -11 7 -11 18 0 53 23 53 35 0 12 -34 9
-87 -7z"/>
<path d="M2812 1249 c2 -16 11 -25 26 -27 18 -3 22 -8 17 -20 -16 -38 -35
-106 -30 -110 14 -14 36 14 50 62 15 53 18 55 44 50 30 -6 45 4 33 23 -4 6
-27 15 -52 21 -25 6 -56 14 -68 18 -21 6 -23 4 -20 -17z m73 -27 c-3 -3 -11 0
-18 7 -9 10 -8 11 6 5 10 -3 15 -9 12 -12z"/>
<path d="M3180 1080 c0 -82 3 -100 15 -100 12 0 15 18 15 100 0 82 -3 100 -15
100 -12 0 -15 -18 -15 -100z"/>
<path d="M3237 1173 c-2 -5 -3 -48 -3 -98 1 -72 4 -90 16 -90 12 0 16 19 18
98 2 80 0 97 -12 97 -8 0 -17 -3 -19 -7z"/>
<path d="M3290 1086 c0 -56 4 -97 11 -101 17 -11 19 -2 22 96 2 82 0 94 -15
97 -16 3 -18 -6 -18 -92z"/>
<path d="M3349 1173 c-4 -27 0 -185 4 -190 18 -17 27 18 27 103 0 77 -3 94
-15 94 -8 0 -15 -3 -16 -7z"/>
<path d="M3405 1167 c-3 -7 -5 -52 -3 -98 2 -67 6 -84 18 -84 12 0 15 17 15
94 0 67 -4 96 -12 98 -7 3 -15 -2 -18 -10z"/>
<path d="M2083 965 c0 -8 4 -12 9 -9 5 3 6 10 3 15 -9 13 -12 11 -12 -6z"/>
<path d="M4017 1043 c-13 -12 -7 -43 8 -43 9 0 15 9 15 25 0 24 -10 32 -23 18z"/>
<path d="M3820 2110 c0 -5 -20 -43 -45 -83 -25 -41 -45 -78 -45 -82 0 -4 11
-5 25 -3 15 3 25 1 25 -6 0 -15 -34 -103 -43 -112 -10 -10 -9 -24 2 -24 5 0
12 8 15 18 4 10 26 49 51 87 25 37 45 72 45 77 0 4 -11 6 -25 2 -14 -3 -25 -2
-25 2 0 10 24 89 35 117 4 10 3 17 -4 17 -6 0 -11 -4 -11 -10z m-19 -152 c8
-15 8 -18 0 -14 -6 4 -16 16 -22 28 -8 15 -8 18 0 14 6 -4 16 -16 22 -28z"/>
<path d="M3719 2077 c-73 -49 -89 -150 -32 -209 37 -39 50 -20 19 27 -46 67
-25 140 51 171 18 8 33 19 33 24 0 17 -36 11 -71 -13z"/>
<path d="M3847 2074 c-4 -4 7 -22 23 -41 54 -62 32 -146 -47 -179 -43 -19 -44
-39 0 -30 20 3 46 21 70 47 32 36 37 48 37 88 0 46 -17 82 -50 108 -17 14 -24
16 -33 7z"/>
<path d="M4087 1970 c-33 -54 -34 -60 -17 -60 24 0 24 2 4 -45 -20 -49 -12
-69 11 -25 9 19 28 50 42 68 l24 32 -24 0 c-24 0 -25 0 -10 41 7 23 12 43 10
46 -2 2 -20 -24 -40 -57z"/>
<path d="M4042 2004 c-53 -37 -60 -97 -16 -150 20 -25 23 -26 23 -9 0 11 -6
29 -14 39 -25 33 -18 63 20 93 19 15 35 31 35 36 0 12 -24 8 -48 -9z"/>
<path d="M4140 1996 c0 -7 7 -19 15 -26 9 -7 15 -29 15 -51 0 -34 -5 -42 -40
-64 -45 -28 -49 -35 -20 -35 11 0 33 12 50 28 40 36 48 85 21 130 -21 33 -41
42 -41 18z"/>
<path d="M3936 1769 c-40 -67 -41 -71 -23 -67 17 4 19 -11 6 -50 -18 -53 -5
-47 34 17 43 68 43 71 17 64 -18 -5 -18 -2 -9 28 6 19 13 42 16 52 10 33 -5
17 -41 -44z"/>
<path d="M3880 1790 c-39 -39 -42 -95 -5 -137 30 -34 35 -12 8 36 -16 28 -17
33 -3 58 9 16 25 32 38 38 29 13 37 35 12 35 -11 0 -33 -13 -50 -30z"/>
<path d="M3987 1796 c-3 -8 3 -22 14 -32 38 -34 18 -90 -47 -131 -18 -11 -18
-12 1 -12 53 -2 100 66 85 121 -12 43 -45 76 -53 54z"/>
<path d="M3667 1695 c-31 -52 -57 -96 -57 -98 0 -2 14 -2 30 1 17 2 30 2 30 0
0 -6 -35 -107 -45 -132 -14 -33 13 -8 35 32 26 47 39 69 69 110 l23 34 -28 -4
c-20 -2 -29 -8 -28 -20 1 -14 -2 -16 -17 -7 -11 5 -19 15 -19 22 0 8 4 7 10
-3 10 -17 7 -24 39 85 11 38 19 71 17 72 -1 2 -28 -40 -59 -92z"/>
<path d="M3620 1742 c-91 -45 -107 -167 -31 -236 22 -20 42 -14 26 8 -39 53
-46 69 -47 106 0 47 26 83 80 105 32 14 44 35 20 35 -7 0 -29 -8 -48 -18z"/>
<path d="M3730 1734 c0 -4 14 -22 30 -41 59 -67 38 -146 -48 -186 -44 -20 -45
-22 -20 -25 63 -8 128 59 128 131 0 42 -12 70 -43 105 -19 20 -47 30 -47 16z"/>
</g>
</svg>
