<?xml version="1.0" standalone="no"?>
<!DOCTYPE svg PUBLIC "-//W3C//DTD SVG 20010904//EN"
 "http://www.w3.org/TR/2001/REC-SVG-20010904/DTD/svg10.dtd">
<svg version="1.0" xmlns="http://www.w3.org/2000/svg"
 width="600.000000pt" height="327.000000pt" viewBox="0 0 600.000000 327.000000"
 preserveAspectRatio="xMidYMid meet">
<g transform="translate(0.000000,327.000000) scale(0.100000,-0.100000)"
fill="#000000" stroke="none">
<path d="M3060 2493 c-16 -29 -97 -163 -136 -223 -37 -56 -35 -64 14 -61 23 1
42 0 42 -3 0 -14 -39 -145 -58 -193 -23 -62 -12 -71 18 -14 11 22 32 59 47 83
63 97 112 181 112 193 0 5 -17 8 -39 6 -22 -1 -40 -1 -40 2 0 16 43 176 51
194 6 11 10 26 7 33 -2 7 -10 -1 -18 -17z m-56 -177 c-3 -9 -10 -13 -15 -10
-5 3 -9 -5 -9 -18 0 -17 3 -19 9 -9 7 11 13 9 30 -8 12 -12 26 -19 31 -16 13
8 13 1 -1 -29 -7 -14 -17 -23 -22 -19 -6 4 -8 0 -4 -10 4 -11 1 -17 -8 -17 -7
0 -15 -6 -18 -12 -2 -7 -3 -4 -1 6 4 24 -14 59 -26 51 -5 -3 -12 0 -16 6 -4 8
-9 7 -15 -2 -7 -11 -9 -11 -9 2 0 9 9 24 20 34 11 10 20 23 20 28 0 12 31 49
37 43 2 -2 1 -11 -3 -20z"/>
<path d="M2940 2463 c-14 -3 -46 -20 -72 -39 -89 -66 -122 -185 -78 -282 17
-39 84 -112 103 -112 18 0 4 44 -23 73 -70 74 -76 171 -16 250 22 29 45 47 76
57 42 14 69 34 70 53 0 7 -18 7 -60 0z"/>
<path d="M3090 2429 c0 -11 14 -32 30 -46 73 -61 88 -168 37 -250 -27 -43 -88
-83 -127 -83 -21 0 -46 -42 -29 -48 19 -7 116 30 146 56 45 40 83 116 83 170
0 72 -20 121 -71 173 -52 53 -69 60 -69 28z"/>
<path d="M2757 1682 l-237 -237 0 -358 0 -357 480 0 480 0 0 195 0 195 160 2
c139 3 158 5 150 18 -8 12 -36 15 -160 15 l-150 -1 0 147 0 146 -235 234
c-130 129 -239 235 -243 237 -4 1 -114 -105 -245 -236z m472 -41 l222 -215 -3
-135 -3 -135 -25 0 c-19 0 -25 5 -25 24 0 18 -6 26 -22 28 -22 3 -33 22 -13
22 6 0 10 6 10 14 0 8 4 16 10 18 12 4 1 48 -12 48 -5 0 -18 -9 -30 -20 -16
-14 -18 -20 -7 -20 12 0 12 -2 0 -9 -12 -8 -12 -12 -2 -24 15 -18 3 -28 -32
-25 -24 2 -28 28 -3 28 6 0 2 7 -8 15 -13 10 -15 15 -6 15 9 0 7 7 -8 20 -12
11 -26 20 -32 20 -13 0 -4 -74 10 -78 17 -6 11 -20 -7 -18 -16 1 -18 -10 -21
-82 l-3 -83 88 3 88 3 3 33 c3 26 7 32 28 32 l24 0 0 -175 0 -175 -150 0 -150
0 0 194 c0 146 -3 195 -12 198 -23 9 -271 -1 -280 -10 -6 -6 -8 -90 -6 -196
l3 -187 -149 3 -148 3 -2 325 -1 325 220 217 c121 120 223 216 226 215 4 -1
106 -98 228 -216z m131 -509 l0 -47 -56 3 c-44 3 -54 7 -50 19 3 8 6 29 6 46
l0 32 50 -3 50 -4 0 -46z m110 -2 c0 -5 -2 -10 -4 -10 -3 0 -8 5 -11 10 -3 6
-1 10 4 10 6 0 11 -4 11 -10z m-360 -182 l0 -178 -110 0 -110 0 0 180 0 180
110 -2 110 -3 0 -177z"/>
<path d="M3745 1219 c-8 -12 32 -59 51 -59 31 0 17 -51 -16 -58 -22 -5 -40
-22 -40 -38 0 -25 36 -15 70 21 32 33 38 35 100 35 54 0 67 -3 78 -20 25 -41
102 -14 102 37 0 23 -39 63 -62 63 -8 0 -26 -10 -40 -23 -22 -21 -33 -23 -89
-20 -57 3 -68 8 -99 38 -39 38 -45 41 -55 24z m302 -75 c9 -23 -13 -40 -32
-24 -12 10 -13 16 -4 26 15 18 28 18 36 -2z"/>
</g>
</svg>
