<?xml version="1.0" standalone="no"?>
<!DOCTYPE svg PUBLIC "-//W3C//DTD SVG 20010904//EN"
 "http://www.w3.org/TR/2001/REC-SVG-20010904/DTD/svg10.dtd">
<svg version="1.0" xmlns="http://www.w3.org/2000/svg"
 width="600.000000pt" height="328.000000pt" viewBox="0 0 600.000000 328.000000"
 preserveAspectRatio="xMidYMid meet">
<g transform="translate(0.000000,328.000000) scale(0.100000,-0.100000)"
fill="#000000" stroke="none">
<path d="M2665 2380 c-7 -43 -32 -69 -87 -90 -110 -41 -156 -97 -154 -183 1
-45 4 -52 21 -52 17 0 21 9 26 63 7 73 26 97 99 125 25 9 60 26 78 37 53 33
86 140 43 140 -15 0 -21 -10 -26 -40z m16 -27 c-12 -20 -14 -14 -5 12 4 9 9
14 11 11 3 -2 0 -13 -6 -23z m-234 -265 c-3 -8 -6 -5 -6 6 -1 11 2 17 5 13 3
-3 4 -12 1 -19z"/>
<path d="M3350 2332 c0 -40 -29 -70 -92 -94 -107 -40 -148 -90 -148 -181 0
-58 4 -69 26 -60 9 3 14 22 14 57 1 80 33 119 120 146 25 7 56 23 68 34 51 45
71 126 32 126 -15 0 -20 -7 -20 -28z"/>
<path d="M2881 2291 c-19 -64 -53 -81 -177 -90 -98 -7 -107 -10 -134 -37 -19
-19 -32 -44 -36 -71 -6 -39 -5 -43 15 -43 16 0 21 6 21 29 0 17 10 38 25 53
22 23 35 26 123 30 101 5 128 14 169 58 24 26 46 87 37 102 -12 19 -32 5 -43
-31z"/>
<path d="M3570 2263 c0 -32 -40 -84 -75 -99 -19 -8 -65 -14 -102 -14 -69 0
-136 -22 -159 -51 -7 -8 -15 -33 -19 -56 -6 -39 -5 -43 13 -43 15 0 21 9 26
35 10 53 43 69 157 76 53 3 103 11 110 17 8 7 26 21 41 32 28 22 54 81 44 105
-8 21 -36 19 -36 -2z"/>
<path d="M3778 2040 c-27 -43 -48 -82 -48 -85 0 -4 11 -5 25 -3 14 3 25 3 25
1 0 -13 -34 -109 -41 -118 -12 -12 -11 -25 1 -25 6 0 15 10 19 23 5 12 30 52
54 90 l45 67 -29 0 c-27 0 -29 2 -23 28 3 15 12 44 20 65 22 60 3 42 -48 -43z
m32 -76 c0 -18 -4 -18 -24 5 -17 19 -17 19 3 14 12 -3 21 -12 21 -19z"/>
<path d="M3735 2091 c-22 -10 -45 -24 -51 -32 -23 -28 -37 -86 -30 -122 7 -35
46 -87 66 -87 17 0 11 22 -12 42 -19 16 -23 30 -23 75 0 48 4 58 28 79 15 13
36 24 46 24 11 0 22 7 25 16 12 30 7 31 -49 5z"/>
<path d="M3847 2083 c-4 -3 7 -22 23 -42 53 -64 30 -160 -42 -179 -42 -11 -49
-32 -10 -32 31 0 81 38 101 77 17 34 13 95 -9 130 -19 33 -53 57 -63 46z"/>
<path d="M2274 1987 c-3 -8 0 -35 6 -61 5 -25 13 -99 16 -164 6 -111 -2 -197
-35 -387 -13 -70 -66 -226 -107 -314 -26 -55 -35 -86 -32 -115 l2 -41 -42 0
c-37 0 -42 -3 -42 -22 l0 -23 965 0 965 0 -4 22 c-2 20 -8 22 -44 19 l-42 -3
0 161 c0 89 4 161 8 161 4 0 13 -5 19 -11 15 -15 34 -3 26 17 -3 8 -54 55
-114 104 l-109 90 -173 2 -174 1 -79 -64 c-43 -35 -81 -66 -84 -70 -3 -3 -22
-18 -42 -33 -40 -30 -43 -62 -4 -52 21 5 21 3 23 -149 l2 -155 -100 0 -99 0 0
42 c0 27 -18 88 -50 168 -108 275 -146 520 -116 748 9 68 14 128 11 133 -4 5
-119 9 -276 9 -215 0 -271 -3 -275 -13z m512 -43 c-3 -9 -6 -22 -6 -30 0 -12
-38 -14 -230 -14 -192 0 -230 2 -230 14 0 8 -3 21 -6 30 -6 14 19 16 236 16
217 0 242 -2 236 -16z m-18 -154 c-12 -86 2 -258 33 -405 19 -91 79 -276 105
-327 29 -55 44 -53 -356 -53 -204 0 -370 3 -370 8 0 4 9 25 19 46 25 47 75
200 94 283 32 139 40 210 41 360 l1 158 220 2 c121 2 221 3 222 3 1 0 -3 -34
-9 -75z m649 -405 c0 -8 -4 -12 -9 -9 -5 3 -6 10 -3 15 9 13 12 11 12 -6z
m331 -48 c37 -28 84 -61 105 -71 26 -14 34 -22 25 -28 -8 -4 -17 -2 -24 7 -6
8 -15 11 -19 7 -5 -4 -5 -1 -1 6 5 8 3 13 -5 11 -8 -1 -69 -1 -135 0 l-121 1
-69 56 c-38 31 -71 58 -73 60 -2 2 53 4 123 4 l127 0 67 -53z m-354 30 c8 -7
32 -29 56 -48 99 -81 90 -57 90 -249 l0 -170 -40 0 -40 0 0 110 0 111 -82 -3
-83 -3 3 -108 2 -108 -40 3 c-22 2 -40 6 -40 11 0 4 0 83 0 176 l0 168 78 61
c42 34 78 61 80 62 2 0 9 -6 16 -13z m-200 -132 c3 -8 1 -15 -3 -15 -5 0 -11
7 -15 15 -3 8 -1 15 3 15 5 0 11 -7 15 -15z m646 -170 l0 -165 -130 0 -130 0
0 165 0 165 130 0 130 0 0 -165z m-420 -72 l0 -93 -40 0 -40 0 0 93 0 92 40 0
40 1 0 -93z m-460 3 c0 -3 -4 -8 -10 -11 -5 -3 -10 -1 -10 4 0 6 5 11 10 11 6
0 10 -2 10 -4z m-18 -56 c3 -17 2 -32 0 -35 -3 -3 -180 -5 -394 -5 l-388 0 0
35 0 35 389 0 389 0 4 -30z"/>
<path d="M2396 1778 c-2 -7 -7 -73 -10 -145 -6 -145 -37 -306 -87 -456 -16
-48 -27 -92 -24 -98 17 -27 35 -1 68 104 59 186 80 312 81 476 1 91 -2 125
-11 128 -7 3 -15 -1 -17 -9z"/>
<path d="M3642 1163 c-4 -6 -5 -41 -4 -77 l4 -66 69 0 c63 0 69 2 74 23 7 28
2 114 -7 122 -12 13 -129 11 -136 -2z m104 -63 c1 -40 1 -40 -37 -40 -37 0
-39 1 -39 33 0 41 5 47 44 47 30 0 31 -2 32 -40z"/>
<path d="M2967 1858 c14 -149 7 -334 -17 -438 -33 -142 -35 -170 -16 -170 9 0
18 12 22 28 3 15 10 38 15 52 26 73 42 196 43 332 l1 148 215 0 215 0 0 -132
c0 -163 8 -208 37 -208 17 0 19 4 14 28 -21 93 -15 334 10 425 5 16 -13 17
-271 17 l-275 0 7 -82z m491 17 l-2 -25 -223 0 c-129 0 -223 4 -223 9 0 5 -3
16 -6 25 -5 14 18 16 225 16 l231 0 -2 -25z"/>
<path d="M3936 1776 c-20 -31 -36 -59 -36 -61 0 -3 9 -5 19 -5 18 0 19 -3 9
-32 -6 -18 -15 -39 -21 -46 -5 -7 -7 -15 -3 -19 3 -3 7 -4 9 -2 25 37 77 120
77 124 0 3 -9 5 -20 5 -24 0 -24 -2 -4 45 24 57 10 53 -30 -9z"/>
<path d="M3879 1791 c-35 -36 -39 -92 -9 -131 25 -33 38 -17 16 21 -26 44 -10
94 37 112 9 3 17 11 17 17 0 20 -32 10 -61 -19z"/>
<path d="M3990 1793 c0 -11 7 -23 15 -27 24 -9 19 -69 -8 -94 -13 -12 -29 -22
-35 -22 -7 0 -12 -7 -12 -14 0 -25 59 3 81 38 24 38 18 81 -16 116 -24 24 -25
24 -25 3z"/>
<path d="M3701 1758 c-8 -18 -32 -58 -53 -89 -21 -31 -38 -58 -38 -61 0 -2 14
-3 30 0 17 2 30 0 30 -4 0 -5 -11 -39 -24 -76 -13 -38 -21 -68 -17 -68 7 1
105 159 109 179 3 10 -3 12 -22 7 -32 -8 -32 -2 -7 82 20 66 15 84 -8 30z
m-28 -122 c4 -10 1 -13 -8 -9 -8 3 -12 9 -9 14 7 12 11 11 17 -5z"/>
<path d="M3604 1741 c-73 -45 -85 -162 -23 -220 44 -41 54 -17 14 31 -18 21
-25 41 -25 69 0 54 13 75 60 99 21 11 41 24 45 30 11 17 -38 11 -71 -9z"/>
<path d="M3734 1738 c-4 -6 -1 -16 7 -22 49 -37 63 -105 32 -156 -16 -28 -51
-50 -77 -50 -8 0 -17 -7 -20 -16 -12 -30 65 -7 104 32 32 31 35 39 35 92 0 41
-5 64 -20 84 -27 36 -52 51 -61 36z"/>
<path d="M3076 1718 c-3 -7 -7 -62 -11 -121 -7 -128 -33 -262 -70 -367 -42
-119 -41 -112 -14 -108 19 2 27 15 45 73 59 187 74 264 81 413 5 110 4 122
-11 122 -9 0 -18 -6 -20 -12z"/>
<path d="M3020 990 c0 -18 7 -20 59 -20 54 0 59 2 54 20 -5 17 -14 20 -59 20
-47 0 -54 -2 -54 -20z"/>
</g>
</svg>
