<?xml version="1.0" standalone="no"?>
<!DOCTYPE svg PUBLIC "-//W3C//DTD SVG 20010904//EN"
 "http://www.w3.org/TR/2001/REC-SVG-20010904/DTD/svg10.dtd">
<svg version="1.0" xmlns="http://www.w3.org/2000/svg"
 width="600.000000pt" height="327.000000pt" viewBox="0 0 600.000000 327.000000"
 preserveAspectRatio="xMidYMid meet">
<g transform="translate(0.000000,327.000000) scale(0.100000,-0.100000)"
fill="#000000" stroke="none">
<path d="M2540 2540 c-12 -7 -15 -33 -17 -112 l-2 -103 -130 -3 -130 -3 6 35
c7 45 -3 86 -22 86 -12 0 -15 -14 -15 -60 l0 -60 -40 0 c-29 0 -40 -4 -40 -15
0 -12 16 -15 88 -15 l87 0 98 -98 97 -98 0 -687 c0 -680 0 -687 20 -687 20 0
20 7 20 786 l0 785 50 -3 51 -3 2 -780 c2 -734 3 -780 20 -783 16 -3 17 16 17
282 l0 286 64 0 65 0 3 -42 c3 -39 7 -45 43 -62 56 -27 194 -27 250 0 l40 19
3 138 c3 136 3 138 25 137 39 -4 47 0 47 20 0 17 7 20 40 20 l40 0 0 -212 0
-213 -137 0 -138 0 -5 -35 c-4 -31 -8 -35 -35 -35 l-30 0 0 -85 0 -85 80 0 80
0 0 85 0 85 -30 0 c-20 0 -31 5 -33 17 -3 16 8 18 123 18 115 0 126 -2 123
-17 -2 -10 -10 -17 -17 -15 -7 1 -22 0 -32 -3 -18 -6 -19 -15 -17 -88 l3 -82
85 0 85 0 0 85 0 85 -30 0 -30 0 -5 260 -5 260 -57 3 c-50 3 -57 6 -60 25 -2
18 -9 22 -35 21 -36 -2 -43 12 -16 31 30 22 4 35 -68 35 -45 0 -68 4 -64 10 4
6 10 8 15 5 5 -3 11 -1 15 4 3 6 12 8 20 5 27 -11 27 23 1 51 -14 15 -26 31
-26 36 0 11 20 22 28 14 3 -3 0 -10 -7 -14 -10 -7 -8 -11 9 -16 30 -9 46 8 26
28 -9 8 -14 21 -11 29 7 19 -10 42 -25 33 -6 -4 -9 -16 -7 -27 5 -17 2 -19
-19 -14 -30 8 -47 -21 -21 -36 25 -13 21 -28 -8 -28 -28 0 -34 -24 -10 -38 29
-15 7 -42 -35 -42 -43 0 -59 22 -35 47 19 18 14 39 -8 35 -21 -4 -32 17 -13
24 24 9 19 33 -9 44 -14 5 -25 16 -25 25 0 8 -7 15 -15 15 -15 0 -19 -10 -16
-42 1 -10 -3 -18 -8 -18 -6 0 -11 -9 -11 -20 0 -13 7 -20 20 -20 23 0 27 -18
5 -26 -31 -12 -9 -48 22 -37 8 3 11 14 7 29 -6 25 1 30 23 16 10 -6 10 -12 -2
-28 -16 -22 -20 -38 -6 -29 5 3 12 1 15 -3 3 -5 -25 -10 -62 -11 -74 -2 -98
-15 -69 -35 9 -7 17 -25 17 -40 0 -25 -1 -26 -65 -26 l-65 0 0 365 c0 358 0
365 20 365 13 0 20 7 20 19 0 14 -5 18 -20 14 -19 -5 -20 0 -20 99 0 68 -4
108 -12 116 -14 14 -126 16 -148 2z m124 -127 l1 -93 -52 0 -53 0 0 96 0 95
51 -3 51 -3 2 -92z m27 -116 c-13 -13 -26 -3 -16 12 3 6 11 8 17 5 6 -4 6 -10
-1 -17z m-166 -77 c0 -38 -2 -70 -5 -70 -3 0 -37 32 -75 70 l-69 70 74 0 75 0
0 -70z m6 -97 c13 -16 12 -17 -3 -4 -10 7 -18 15 -18 17 0 8 8 3 21 -13z m402
-342 c-6 -3 -12 -12 -14 -19 -3 -8 -8 -6 -16 7 -10 16 -9 19 14 19 14 0 21 -3
16 -7z m163 -62 c3 -6 0 -15 -7 -20 -14 -8 -32 9 -23 23 7 11 22 10 30 -3z
m37 -297 c0 -135 -4 -197 -12 -205 -15 -15 -226 -16 -241 -1 -6 6 -11 89 -13
207 l-2 198 134 -3 134 -3 0 -193z m67 113 c0 -16 -6 -25 -15 -25 -9 0 -15 9
-15 25 0 16 6 25 15 25 9 0 15 -9 15 -25z m-368 -105 l-3 -110 -65 0 -64 0 0
106 0 105 43 -6 c23 -4 53 -2 67 4 14 5 25 10 25 10 0 1 -1 -48 -3 -109z m268
-490 l0 -50 -50 0 -50 0 0 50 0 50 50 0 50 0 0 -50z m290 0 l0 -50 -50 0 -50
0 0 50 0 50 50 0 50 0 0 -50z"/>
<path d="M3039 2458 c-12 -23 -36 -65 -54 -92 -85 -133 -95 -150 -95 -156 0
-4 20 -5 45 -2 26 2 45 0 45 -5 0 -5 -16 -59 -35 -119 -43 -135 -44 -155 -2
-82 18 32 61 106 97 165 36 59 65 110 65 113 0 2 -20 3 -44 1 -42 -3 -43 -2
-37 21 3 12 13 55 22 93 9 39 20 74 25 80 12 12 11 25 -1 25 -5 0 -19 -19 -31
-42z m-9 -82 c0 -2 -8 -10 -17 -17 -16 -13 -17 -12 -4 4 13 16 21 21 21 13z
m-14 -48 c4 -7 3 -8 -4 -4 -21 13 -13 -42 8 -57 11 -8 17 -18 12 -23 -4 -4 1
-2 11 5 25 20 30 8 7 -16 -10 -12 -16 -24 -13 -27 4 -3 1 -6 -5 -6 -7 0 -9 -7
-5 -17 6 -15 5 -16 -9 -3 -9 8 -14 17 -12 19 8 8 -42 39 -51 31 -6 -5 -10 1
-10 15 0 13 3 21 6 19 4 -2 10 7 13 21 4 14 11 25 16 25 6 0 10 7 10 15 0 18
16 20 26 3z m-14 -166 c-7 -2 -9 -9 -6 -14 4 -7 2 -8 -4 -4 -6 4 -9 13 -6 21
4 8 11 12 17 8 8 -5 7 -8 -1 -11z"/>
<path d="M2941 2460 c-53 -13 -113 -63 -143 -120 -37 -70 -38 -138 -2 -206 24
-44 78 -103 97 -104 18 -1 4 43 -23 71 -42 44 -64 108 -56 161 10 64 65 134
118 150 40 11 67 32 68 51 0 8 -13 8 -59 -3z"/>
<path d="M3090 2430 c0 -11 15 -34 34 -51 71 -61 84 -165 32 -247 -26 -42 -87
-82 -126 -82 -21 0 -46 -42 -29 -48 20 -8 117 30 147 58 50 46 82 114 82 174
0 68 -36 143 -88 184 -47 38 -52 39 -52 12z"/>
</g>
</svg>
